# xmcd CD database file
#
# Track frame offsets:
#	180
#	19045
#	44258
#	99342
#	129789
#	165083
#	196761
#
# Disc length: 3025 seconds
#
# Revision: 1
# Processed by: cddbd v1.5.2PL0 Copyright (c) Steve Scherf et al.
# Submitted via: CDex 1.51
#
DISCID=410bcf07
DTITLE=Riccardo Tesi... - Colline
DYEAR=1900
DGENRE=Folk
TTITLE0=Maïcena Dansa
TTITLE1=Il Funambolo
TTITLE2=Promenade
TTITLE3=Li Barquetas De Sant Joan
TTITLE4=Tarantella Rouge Et Noire
TTITLE5=Romance
TTITLE6=Mazurcazione
EXTD=
EXTT0=
EXTT1=
EXTT2=
EXTT3=
EXTT4=
EXTT5=
EXTT6=
PLAYORDER=
